HIERARCHY
ROOT Hips
{
  OFFSET 5.84602e-005 68.8428 3.50346
  CHANNELS 6 Xposition Yposition Zposition Zrotation Xrotation Yrotation
  JOINT Spine
  {
    OFFSET 0 8.597 -4.6522
    CHANNELS 3 Zrotation Xrotation Yrotation
    JOINT Spine1
    {
      OFFSET 0 7.8454 0.4098
      CHANNELS 3 Zrotation Xrotation Yrotation
      JOINT Spine2
      {
        OFFSET 0 9.7078 -2.1609
        CHANNELS 3 Zrotation Xrotation Yrotation
        JOINT Neck
        {
          OFFSET 0 21.8761 -0.4549
          CHANNELS 3 Zrotation Xrotation Yrotation
          JOINT Head
          {
            OFFSET 0 12.3537 3.3602
            CHANNELS 3 Zrotation Xrotation Yrotation
            End Site
            {
              OFFSET 0.0001 18.9506 0.5657
            }
          }
        }
        JOINT LeftShoulder
        {
          OFFSET 2.2086 21.1115 7.2329
          CHANNELS 3 Zrotation Xrotation Yrotation
          JOINT LeftArm
          {
            OFFSET 13.1193 3.0282 -4.8998
            CHANNELS 3 Zrotation Xrotation Yrotation
            JOINT LeftForeArm
            {
              OFFSET 27.4081 -0.0973053 -0.2375
              CHANNELS 3 Zrotation Xrotation Yrotation
              JOINT LeftHand
              {
                OFFSET 22.8641 0.0662994 -0.1369
                CHANNELS 3 Zrotation Xrotation Yrotation
                JOINT LeftHandIndex1
                {
                  OFFSET 8.8614 0.775009 2.4612
                  CHANNELS 3 Zrotation Xrotation Yrotation
                  JOINT LeftHandIndex2
                  {
                    OFFSET 3.3146 -0.808304 0.5841
                    CHANNELS 3 Zrotation Xrotation Yrotation
                    JOINT LeftHandIndex3
                    {
                      OFFSET 2.2628 -0.552002 0.3989
                      CHANNELS 3 Zrotation Xrotation Yrotation
                      End Site
                      {
                        OFFSET 1.6102 -0.4807 0.2612
                      }
                    }
                  }
                }
                JOINT LeftHandMiddle1
                {
                  OFFSET 8.9937 0.895004 0.2143
                  CHANNELS 3 Zrotation Xrotation Yrotation
                  JOINT LeftHandMiddle2
                  {
                    OFFSET 4.0984 0.0113983 -0.0242
                    CHANNELS 3 Zrotation Xrotation Yrotation
                    JOINT LeftHandMiddle3
                    {
                      OFFSET 2.2716 0.00689697 -0.0138001
                      CHANNELS 3 Zrotation Xrotation Yrotation
                      End Site
                      {
                        OFFSET 2.0404 -0.1441 0.0027
                      }
                    }
                  }
                }
                JOINT LeftHandRing1
                {
                  OFFSET 8.5234 0.597198 -2.0164
                  CHANNELS 3 Zrotation Xrotation Yrotation
                  JOINT LeftHandRing2
                  {
                    OFFSET 3.7188 -0.188293 -0.2328
                    CHANNELS 3 Zrotation Xrotation Yrotation
                    JOINT LeftHandRing3
                    {
                      OFFSET 2.1191 -0.106598 -0.1332
                      CHANNELS 3 Zrotation Xrotation Yrotation
                      End Site
                      {
                        OFFSET 1.8737 -0.2304 -0.0886
                      }
                    }
                  }
                }
                JOINT LeftHandPinky1
                {
                  OFFSET 7.9094 -0.601089 -3.4825
                  CHANNELS 3 Zrotation Xrotation Yrotation
                  JOINT LeftHandPinky2
                  {
                    OFFSET 2.2874 -0.477005 -0.6314
                    CHANNELS 3 Zrotation Xrotation Yrotation
                    JOINT LeftHandPinky3
                    {
                      OFFSET 1.6774 -0.349396 -0.4633
                      CHANNELS 3 Zrotation Xrotation Yrotation
                      End Site
                      {
                        OFFSET 1.4888 -0.4091 -0.3416
                      }
                    }
                  }
                }
                JOINT LeftHandThumb1
                {
                  OFFSET 1.833 -1.3875 1.3896
                  CHANNELS 3 Zrotation Xrotation Yrotation
                  JOINT LeftHandThumb2
                  {
                    OFFSET 3.4129 -1.121 2.5732
                    CHANNELS 3 Zrotation Xrotation Yrotation
                    JOINT LeftHandThumb3
                    {
                      OFFSET 2.2474 -0.804199 1.6192
                      CHANNELS 3 Zrotation Xrotation Yrotation
                      End Site
                      {
                        OFFSET 1.6527 -0.5689 1.1317
                      }
                    }
                  }
                }
              }
            }
          }
        }
        JOINT RightShoulder
        {
          OFFSET -2.2086 21.1115 7.2329
          CHANNELS 3 Zrotation Xrotation Yrotation
          JOINT RightArm
          {
            OFFSET -13.1216 3.0287 -4.9007
            CHANNELS 3 Zrotation Xrotation Yrotation
            JOINT RightForeArm
            {
              OFFSET -27.4081 -0.0973053 -0.2375
              CHANNELS 3 Zrotation Xrotation Yrotation
              JOINT RightHand
              {
                OFFSET -22.8641 0.0664063 -0.1369
                CHANNELS 3 Zrotation Xrotation Yrotation
                JOINT RightHandIndex1
                {
                  OFFSET -8.8614 0.774994 2.4612
                  CHANNELS 3 Zrotation Xrotation Yrotation
                  JOINT RightHandIndex2
                  {
                    OFFSET -3.3146 -0.808304 0.5841
                    CHANNELS 3 Zrotation Xrotation Yrotation
                    JOINT RightHandIndex3
                    {
                      OFFSET -2.2628 -0.552002 0.3989
                      CHANNELS 3 Zrotation Xrotation Yrotation
                      End Site
                      {
                        OFFSET -1.6102 -0.4807 0.2612
                      }
                    }
                  }
                }
                JOINT RightHandMiddle1
                {
                  OFFSET -8.9937 0.894989 0.2143
                  CHANNELS 3 Zrotation Xrotation Yrotation
                  JOINT RightHandMiddle2
                  {
                    OFFSET -4.0984 0.0113983 -0.0242
                    CHANNELS 3 Zrotation Xrotation Yrotation
                    JOINT RightHandMiddle3
                    {
                      OFFSET -2.2716 0.00691223 -0.0138001
                      CHANNELS 3 Zrotation Xrotation Yrotation
                      End Site
                      {
                        OFFSET -2.0404 -0.1441 0.0027
                      }
                    }
                  }
                }
                JOINT RightHandRing1
                {
                  OFFSET -8.5234 0.597198 -2.0164
                  CHANNELS 3 Zrotation Xrotation Yrotation
                  JOINT RightHandRing2
                  {
                    OFFSET -3.7188 -0.188309 -0.2328
                    CHANNELS 3 Zrotation Xrotation Yrotation
                    JOINT RightHandRing3
                    {
                      OFFSET -2.1191 -0.106598 -0.1332
                      CHANNELS 3 Zrotation Xrotation Yrotation
                      End Site
                      {
                        OFFSET -1.8737 -0.2304 -0.0886
                      }
                    }
                  }
                }
                JOINT RightHandPinky1
                {
                  OFFSET -7.9094 -0.601105 -3.4825
                  CHANNELS 3 Zrotation Xrotation Yrotation
                  JOINT RightHandPinky2
                  {
                    OFFSET -2.2874 -0.477005 -0.6314
                    CHANNELS 3 Zrotation Xrotation Yrotation
                    JOINT RightHandPinky3
                    {
                      OFFSET -1.6774 -0.349396 -0.4633
                      CHANNELS 3 Zrotation Xrotation Yrotation
                      End Site
                      {
                        OFFSET -1.4888 -0.4091 -0.3416
                      }
                    }
                  }
                }
                JOINT RightHandThumb1
                {
                  OFFSET -1.833 -1.38751 1.3896
                  CHANNELS 3 Zrotation Xrotation Yrotation
                  JOINT RightHandThumb2
                  {
                    OFFSET -3.41299 -1.12099 2.5732
                    CHANNELS 3 Zrotation Xrotation Yrotation
                    JOINT RightHandThumb3
                    {
                      OFFSET -2.24741 -0.804108 1.6192
                      CHANNELS 3 Zrotation Xrotation Yrotation
                      End Site
                      {
                        OFFSET -1.6527 -0.5689 1.1317
                      }
                    }
                  }
                }
              }
            }
          }
        }
      }
    }
  }
  JOINT RightUpLeg
  {
    OFFSET -9.1966 3.8861 -0.7581
    CHANNELS 3 Zrotation Xrotation Yrotation
    JOINT RightLeg
    {
      OFFSET -0.7359 -41.0265 0
      CHANNELS 3 Zrotation Xrotation Yrotation
      JOINT RightFoot
      {
        OFFSET 0 -40.2855 0
        CHANNELS 3 Zrotation Xrotation Yrotation
        JOINT RightToeBase
        {
          OFFSET 0 -5.6122 11.7359
          CHANNELS 3 Zrotation Xrotation Yrotation
          End Site
          {
            OFFSET 0 0 7.8731
          }
        }
      }
    }
  }
  JOINT LeftUpLeg
  {
    OFFSET 9.1965 3.8864 -0.7581
    CHANNELS 3 Zrotation Xrotation Yrotation
    JOINT LeftLeg
    {
      OFFSET 0.7359 -41.0268 0
      CHANNELS 3 Zrotation Xrotation Yrotation
      JOINT LeftFoot
      {
        OFFSET 0 -40.2855 0
        CHANNELS 3 Zrotation Xrotation Yrotation
        JOINT LeftToeBase
        {
          OFFSET 0 -5.6122 11.7359
          CHANNELS 3 Zrotation Xrotation Yrotation
          End Site
          {
            OFFSET 0 0 7.8731
          }
        }
      }
    }
  }
}
MOTION
Frames:	6
Frame Time:	0.0333333
5.84602e-005 68.8428 3.50346 0 0 -0 0 0 -0 0 0 -0 0 0 -0 0 0 -0 0 0 -0 0 0 -0 0 0 -0 0 0 -0 0 0 -0 0 0 -0 0 0 -0 0 0 -0 0 0 -0 -0.0146107 -8.87603e-005 -2.63497e-007 2.99804e-018 -2.42657e-020 -1.42182e-022 0 0 -0 -0.0187562 -0.001176 5.858e-005 5.06224e-018 3.88251e-019 1.21329e-020 0 0 -0 -0.012269 -0.00324817 0.000675346 -1.74678e-018 3.88251e-019 -0 0 0 -0 0 0 -0 0 0 -0 0 0 -0 0 0 -0 0 0 -0 0 0 -0 0 0 -0 0 0 -0 0 0 -0 0 0 -0 0.0149955 -9.10982e-005 2.64101e-007 -9.69331e-018 1.21329e-020 -4.7394e-023 0 0 -0 0.0189956 -0.00119102 -5.96516e-005 -5.41541e-019 0 2.42657e-020 0 0 -0 0.0122698 -0.00324857 -0.000673756 -2.00796e-019 0 -1.94126e-019 0 0 -0 0 0 -0 0 0 -0 3.39842 1.33031 -0.0637918 -5.65207e-008 0.834868 -0.000436188 -3.39935 -2.16518 -0.0642563 -8.89002e-024 -1.18485e-023 -1.48106e-024 -3.39844 1.35642 0.0640283 -3.18788e-007 0.782166 -0.000588827 3.39931 -2.13858 0.0634662 1.1399e-023 0 -0 
0.00031702 -4.10472 -53.2191 -180 -84.373 -180 -0.0671549 9.22693 -0.114683 -0.117648 18.454 -0.222667 -0.117648 18.454 -0.222667 4.58876e-007 18.8938 -1.78536e-006 -7.51791e-008 9.24005 -2.00991e-009 0.930559 0.0690279 8.98714 -82.1595 0.578298 32.2233 35.6681 6.08694 -81.7181 -7.26704 24.9008 0.127336 -1.59028e-015 8.79622e-015 -7.95139e-016 4.9927e-007 2.28779e-006 2.85605e-007 7.95139e-016 6.90777e-015 7.95139e-016 -1.59028e-015 8.79622e-015 -7.95139e-016 -0.0145971 -8.71947e-005 -7.40546e-007 -7.2382e-007 1.17297e-006 6.19556e-007 -1.59028e-015 8.79622e-015 -7.95139e-016 -0.0187623 -0.00117416 5.73333e-005 -7.95139e-016 -5.91384e-015 -0 -1.59028e-015 8.79622e-015 -7.95139e-016 -0.0122952 -0.00325218 0.000666529 1.59028e-015 -6.85807e-015 -0 -1.59028e-015 8.79622e-015 -7.95139e-016 4.9927e-007 2.28779e-006 2.85605e-007 7.95139e-016 6.90777e-015 7.95139e-016 -0.90395 0.0617114 -8.99274 82.1281 0.586263 -32.2239 -35.6711 6.08563 81.7101 7.26846 24.8998 -0.133835 -7.95139e-016 -1.02374e-014 -0 -7.95139e-016 -7.00716e-015 7.95139e-016 9.72439e-032 -7.00716e-015 7.95139e-016 -7.95139e-016 -1.02374e-014 -0 0.0150055 -8.9771e-005 4.38121e-006 -2.38542e-015 3.13086e-015 -0 -7.95139e-016 -1.02374e-014 -0 0.0190059 -0.00119215 -5.35929e-005 6.69518e-007 1.10593e-006 -7.11106e-007 -7.95139e-016 -1.02374e-014 -0 0.0122675 -0.00324652 -0.000678272 -2.38542e-015 -2.33572e-015 7.95139e-016 -7.95139e-016 -1.02374e-014 -0 -7.95139e-016 -7.00716e-015 7.95139e-016 9.72439e-032 -7.00716e-015 7.95139e-016 -17.4585 2.90343 -1.15231 2.08466 7.69161 -0.953744 -9.60528 14.0208 -0.645774 -4.617e-006 7.09531e-006 2.84858e-006 17.4164 2.77432 1.15485 -2.07268 7.79845 0.951176 9.60088 13.9951 0.644712 1.58655e-006 1.31793e-005 -2.47315e-006 
0.00115349 0.202246 -49.3603 -180 -89.9981 -180 -0.065524 9.16944 -0.106318 -0.115823 18.339 -0.205892 -0.115823 18.339 -0.205892 4.34941e-006 16.9459 -3.37196e-006 6.4408e-008 7.52863 -3.26956e-008 1.91788 -1.36112 7.89835 -77.9967 0.26027 30.4627 33.0235 8.58409 -77.9037 -5.86392 22.8038 -0.256701 -1.30947e-007 7.1887e-008 -8.56371e-007 2.32956e-006 -2.09202e-007 -6.00362e-007 -9.93923e-016 -3.37934e-015 1.59028e-015 -1.30947e-007 7.1887e-008 -8.56371e-007 -0.0146343 -8.98761e-005 7.43386e-007 1.98785e-016 -1.16289e-014 -0 -1.30947e-007 7.1887e-008 -8.56371e-007 -0.0187453 -0.00117456 6.51478e-005 -0 -1.73937e-015 -0 -1.30947e-007 7.1887e-008 -8.56371e-007 -0.0122829 -0.00325659 0.000679859 5.96354e-016 -6.31141e-015 -1.59028e-015 -1.30947e-007 7.1887e-008 -8.56371e-007 2.32956e-006 -2.09202e-007 -6.00362e-007 -9.93923e-016 -3.37934e-015 1.59028e-015 -1.78232 -1.39505 -7.90944 77.9185 0.288192 -30.4553 -33.0278 8.57068 77.8768 5.88092 22.8001 0.238864 -3.97569e-016 -3.03147e-015 -1.59028e-015 -2.55421e-006 2.09279e-006 6.00356e-007 0 1.24737e-014 -0 -3.97569e-016 -3.03147e-015 -1.59028e-015 0.0150089 -8.98136e-005 -1.27712e-005 1.19271e-015 -1.42628e-014 -1.59028e-015 -3.97569e-016 -3.03147e-015 -1.59028e-015 0.0189713 -0.00118873 -5.25642e-005 1.67014e-007 1.40242e-007 9.38334e-007 -3.97569e-016 -3.03147e-015 -1.59028e-015 0.0122611 -0.00324917 -0.000678336 3.97569e-016 -1.68967e-015 -0 -3.97569e-016 -3.03147e-015 -1.59028e-015 -2.55421e-006 2.09279e-006 6.00356e-007 0 1.24737e-014 -0 -16.2357 2.78456 -1.10543 1.83328 7.6784 -0.886434 -9.24644 13.122 -0.611284 -2.09589e-006 -4.56309e-007 1.37281e-006 16.0555 2.2104 1.13017 -1.76595 8.1376 0.884843 9.23887 13.0185 0.617091 -1.04794e-006 -1.33803e-006 2.13459e-006 
0.00195825 0.203159 -49.3602 -180 -89.9981 -180 -0.0676648 9.63096 -0.104675 -0.119781 19.262 -0.202004 -0.119781 19.262 -0.202004 3.66233e-006 16.1545 -2.31988e-006 -1.91471e-008 6.42051 -8.23883e-008 2.89127 -2.71932 7.39253 -78.6463 -0.0199918 30.587 32.9796 8.78085 -78.2232 -4.95336 22.2009 -0.598733 -5.96354e-016 1.49089e-016 1.59028e-015 -1.2702e-006 -1.05924e-006 2.90696e-007 1.35641e-007 -7.14372e-008 8.62657e-007 -5.96354e-016 1.49089e-016 1.59028e-015 -0.0146104 -8.85889e-005 -1.21626e-006 1.19271e-015 -2.5345e-015 1.59028e-015 -5.96354e-016 1.49089e-016 1.59028e-015 -0.0187661 -0.00117506 5.93897e-005 -1.98785e-016 3.08116e-015 -0 -5.96354e-016 1.49089e-016 1.59028e-015 -0.0122637 -0.00324569 0.000675043 1.78906e-015 -9.74045e-015 -1.59028e-015 -5.96354e-016 1.49089e-016 1.59028e-015 -1.2702e-006 -1.05924e-006 2.90696e-007 1.35641e-007 -7.14372e-008 8.62657e-007 -2.65102 -2.77767 -7.40693 78.5225 0.0272769 -30.5724 -32.9853 8.75805 78.1792 4.98515 22.195 0.569932 -3.97569e-016 5.66536e-015 3.18055e-015 1.37935e-032 -4.96962e-016 1.59028e-015 0 6.01324e-015 -0 -3.97569e-016 5.66536e-015 3.18055e-015 0.0150094 -9.37556e-005 -1.14458e-006 -3.97569e-016 -8.54774e-015 1.59028e-015 -3.97569e-016 5.66536e-015 3.18055e-015 0.0190066 -0.00119026 -4.931e-005 3.97569e-016 -5.41688e-015 -1.59028e-015 -3.97569e-016 5.66536e-015 3.18055e-015 0.0122906 -0.00325756 -0.000680748 1.19271e-015 -3.77691e-015 3.18055e-015 -3.97569e-016 5.66536e-015 3.18055e-015 1.37935e-032 -4.96962e-016 1.59028e-015 0 6.01324e-015 -0 -16.2383 2.67964 -1.12157 1.7131 8.27967 -0.883058 -9.24283 13.0172 -0.620272 2.31028e-006 1.22672e-007 4.90044e-007 15.9255 1.69452 1.16622 -1.59226 9.0441 0.879224 9.23261 12.8558 0.631119 1.61402e-006 3.01473e-008 9.40039e-007 
0.00276239 0.204072 -49.3601 -180 -89.9981 -180 -0.069828 10.0945 -0.10297 -0.123846 20.1891 -0.197942 -0.123846 20.1891 -0.197942 -1.23506e-006 15.3614 3.4474e-007 -1.28945e-008 5.30775 2.44262e-009 3.85489 -4.0872 6.90876 -79.2954 -0.301677 30.7081 32.9369 8.9778 -78.5427 -4.05026 21.593 -0.929059 -3.97569e-016 -6.75868e-015 3.18055e-015 -1.19271e-015 -4.02539e-015 1.59028e-015 -3.97569e-016 -4.22417e-015 3.18055e-015 -3.97569e-016 -6.75868e-015 3.18055e-015 -0.0146169 -8.79339e-005 -1.052e-005 -9.93923e-016 2.93207e-015 3.18055e-015 -3.97569e-016 -6.75868e-015 3.18055e-015 -0.0187425 -0.00117511 6.75317e-005 0 5.11871e-015 -0 -3.97569e-016 -6.75868e-015 3.18055e-015 -0.0122644 -0.00324635 0.000674759 1.48969e-031 -1.3418e-015 6.36111e-015 -3.97569e-016 -6.75868e-015 3.18055e-015 -1.19271e-015 -4.02539e-015 1.59028e-015 -3.97569e-016 -4.22417e-015 3.18055e-015 -3.50957 -4.169 -6.92433 79.1261 -0.234882 -30.6868 -32.9437 8.94561 78.4816 4.0967 21.585 0.889475 -1.98785e-015 -6.85807e-015 -3.18055e-015 2.32334e-006 2.33459e-007 -6.15475e-007 3.97569e-016 -7.8023e-015 -3.18055e-015 -1.98785e-015 -6.85807e-015 -3.18055e-015 0.0149921 -9.06907e-005 4.4329e-006 1.19271e-015 -1.54058e-014 -3.18055e-015 -1.98785e-015 -6.85807e-015 -3.18055e-015 0.0190115 -0.00119261 -5.91203e-005 -1.98785e-015 8.39865e-015 -1.27222e-014 -1.98785e-015 -6.85807e-015 -3.18055e-015 0.0122562 -0.00324671 -0.000671544 -3.97569e-016 5.91384e-015 -1.59028e-015 -1.98785e-015 -6.85807e-015 -3.18055e-015 2.32334e-006 2.33459e-007 -6.15475e-007 3.97569e-016 -7.8023e-015 -3.18055e-015 -16.2408 2.58517 -1.13747 1.59252 8.8597 -0.877508 -9.2396 12.9231 -0.62835 -1.30229e-006 1.00922e-005 5.94896e-006 15.7954 1.19447 1.201 -1.41764 9.91846 0.869627 9.22695 12.7092 0.643731 -1.39944e-006 3.03289e-007 9.12285e-007 
0.00356819 0.204987 -49.36 -180 -89.9981 -180 -0.07201 10.5591 -0.101204 -0.128016 21.1183 -0.193711 -0.128016 21.1182 -0.193711 5.62781e-007 14.5673 -7.03976e-007 3.13413e-008 4.1905 -1.67473e-007 4.80925 -5.4636 6.44698 -79.944 -0.584756 30.8259 32.8952 9.175 -78.8623 -3.15451 20.9802 -1.24777 0 3.8763e-015 -0 -7.95139e-016 7.45443e-016 -0 -1.19271e-015 7.45443e-016 -1.59028e-015 0 3.8763e-015 -0 -0.0146266 -8.9017e-005 -9.29578e-006 -5.96354e-016 -4.96962e-016 -0 0 3.8763e-015 -0 -0.0187216 -0.0011712 6.0722e-005 -2.7311e-031 3.27995e-015 4.77083e-015 0 3.8763e-015 -0 -0.0122702 -0.00324828 0.000675048 1.37096e-007 -7.03049e-008 8.68722e-007 0 3.8763e-015 -0 -7.95139e-016 7.45443e-016 -0 -1.19271e-015 7.45443e-016 -1.59028e-015 -4.35849 -5.56796 -6.46152 79.7291 -0.498244 -30.7984 -32.9031 9.13343 78.7841 3.21544 20.9704 1.19755 2.55724e-006 -2.08945e-006 -6.00706e-007 1.04473e-006 1.27862e-006 -3.1494e-007 2.32334e-006 2.33892e-007 -6.15293e-007 2.55724e-006 -2.08945e-006 -6.00706e-007 0.0149805 -8.89843e-005 4.15237e-006 2.32334e-006 2.33812e-007 -6.15326e-007 2.55724e-006 -2.08945e-006 -6.00706e-007 0.0189796 -0.00118634 -5.93584e-005 2.32334e-006 2.33792e-007 -6.15356e-007 2.55724e-006 -2.08945e-006 -6.00706e-007 0.0122895 -0.0032541 -0.000678916 2.32332e-006 2.3384e-007 -6.15384e-007 2.55724e-006 -2.08945e-006 -6.00706e-007 1.04473e-006 1.27862e-006 -3.1494e-007 2.32334e-006 2.33892e-007 -6.15293e-007 -16.2432 2.49708 -1.15315 1.47154 9.42687 -0.870248 -9.23662 12.8355 -0.635858 1.03592e-006 2.30252e-006 -4.40667e-007 15.6653 0.705843 1.23455 -1.24205 10.7697 0.856556 9.22174 12.5742 0.655333 2.10187e-006 -4.55507e-007 -1.36405e-006 
